<?xml version="1.0" encoding="UTF-8" standalone="no"?>
<!DOCTYPE svg PUBLIC "-//W3C//DTD SVG 1.1//EN"
 "http://www.w3.org/Graphics/SVG/1.1/DTD/svg11.dtd">
<!-- Generated by graphviz version 2.44.0 (0)
 -->
<!-- Pages: 1 -->
<svg width="1452pt" height="452pt"
 viewBox="0.00 0.00 1452.00 452.48" xmlns="http://www.w3.org/2000/svg" xmlns:xlink="http://www.w3.org/1999/xlink">
<g id="graph0" class="graph" transform="scale(1 1) rotate(0) translate(4 448.48)">
<polygon fill="white" stroke="transparent" points="-4,4 -4,-448.48 1448,-448.48 1448,4 -4,4"/>
<g id="clust1" class="cluster">
<title>cluster411506101</title>
<polygon fill="none" stroke="black" points="8,-8 8,-227 834,-227 834,-8 8,-8"/>
</g>
<g id="clust5" class="cluster">
<title>cluster1332668132</title>
<polygon fill="none" stroke="black" points="842,-146.13 842,-331.74 1436,-331.74 1436,-146.13 842,-146.13"/>
</g>
<g id="clust9" class="cluster">
<title>cluster1610525991</title>
<polygon fill="none" stroke="black" points="982,-366.74 982,-436.48 1296,-436.48 1296,-366.74 982,-366.74"/>
</g>
<!-- n411506101 -->
<g id="node1" class="node">
<title>n411506101</title>
<polygon fill="#bbbbff" stroke="black" stroke-width="3" points="453,-219 255,-181 453,-143 651,-181 453,-219"/>
<text text-anchor="middle" x="453" y="-184.8" font-family="monospace" font-size="14.00">example_paper:mul(_,_)</text>
<text text-anchor="middle" x="453" y="-169.8" font-family="monospace" font-size="14.00">OR;A</text>
</g>
<!-- n1769190683 -->
<g id="node2" class="node">
<title>n1769190683</title>
<polygon fill="#bbbbff" stroke="black" points="214,-92 16,-54 214,-16 412,-54 214,-92"/>
<text text-anchor="middle" x="214" y="-57.8" font-family="monospace" font-size="14.00">example_paper:const(1)</text>
<text text-anchor="middle" x="214" y="-42.8" font-family="monospace" font-size="14.00">OR;A</text>
</g>
<!-- n411506101&#45;&gt;n1769190683 -->
<g id="edge1" class="edge">
<title>n411506101&#45;&gt;n1769190683</title>
<path fill="none" stroke="black" d="M401.14,-152.88C361.05,-131.91 305.82,-103.02 265.76,-82.07"/>
<text text-anchor="middle" x="351.5" y="-113.8" font-family="Times,serif" font-size="14.00">0</text>
</g>
<!-- n411506101&#45;&gt;n1769190683 -->
<g id="edge2" class="edge">
<title>n411506101&#45;&gt;n1769190683</title>
</g>
<!-- n1577592551 -->
<g id="node3" class="node">
<title>n1577592551</title>
<polygon fill="#bbbbff" stroke="black" points="628,-92 430,-54 628,-16 826,-54 628,-92"/>
<text text-anchor="middle" x="628" y="-57.8" font-family="monospace" font-size="14.00">example_paper:const(2)</text>
<text text-anchor="middle" x="628" y="-42.8" font-family="monospace" font-size="14.00">O;C</text>
</g>
<!-- n411506101&#45;&gt;n1577592551 -->
<g id="edge3" class="edge">
<title>n411506101&#45;&gt;n1577592551</title>
<path fill="none" stroke="black" d="M494.03,-150.69C522.01,-130.7 558.93,-104.34 586.92,-84.34"/>
<text text-anchor="middle" x="554.5" y="-113.8" font-family="Times,serif" font-size="14.00">1</text>
</g>
<!-- n1332668132 -->
<g id="node4" class="node">
<title>n1332668132</title>
<ellipse fill="white" stroke="black" cx="990" cy="-296.87" rx="140.01" ry="26.74"/>
<text text-anchor="middle" x="990" y="-300.67" font-family="monospace" font-size="14.00">example_paper:mul(_,_)</text>
<text text-anchor="middle" x="990" y="-285.67" font-family="monospace" font-size="14.00">O;C</text>
</g>
<!-- n1332668132&#45;&gt;n411506101 -->
<g id="edge9" class="edge">
<title>n1332668132&#45;&gt;n411506101</title>
<path fill="none" stroke="black" stroke-dasharray="5,2" d="M898.6,-276.49C803.23,-256.26 654.03,-224.63 554.91,-203.61"/>
<polygon fill="black" stroke="black" points="555.39,-200.13 544.88,-201.48 553.94,-206.98 555.39,-200.13"/>
</g>
<!-- n1147580192 -->
<g id="node5" class="node">
<title>n1147580192</title>
<ellipse fill="white" stroke="black" cx="990" cy="-181" rx="140.01" ry="26.74"/>
<text text-anchor="middle" x="990" y="-184.8" font-family="monospace" font-size="14.00">example_paper:const(1)</text>
<text text-anchor="middle" x="990" y="-169.8" font-family="monospace" font-size="14.00">O;C</text>
</g>
<!-- n1332668132&#45;&gt;n1147580192 -->
<g id="edge4" class="edge">
<title>n1332668132&#45;&gt;n1147580192</title>
<path fill="none" stroke="black" d="M987.24,-269.92C986.72,-264.03 986.26,-257.81 986,-252 985.34,-237.41 986.17,-221.12 987.25,-207.92"/>
<text text-anchor="middle" x="989.5" y="-240.8" font-family="Times,serif" font-size="14.00">0</text>
</g>
<!-- n1332668132&#45;&gt;n1147580192 -->
<g id="edge5" class="edge">
<title>n1332668132&#45;&gt;n1147580192</title>
</g>
<!-- n1327006586 -->
<g id="node6" class="node">
<title>n1327006586</title>
<ellipse fill="white" stroke="black" cx="1288" cy="-181" rx="140.01" ry="26.74"/>
<text text-anchor="middle" x="1288" y="-184.8" font-family="monospace" font-size="14.00">example_paper:const(2)</text>
<text text-anchor="middle" x="1288" y="-169.8" font-family="monospace" font-size="14.00">O;C</text>
</g>
<!-- n1332668132&#45;&gt;n1327006586 -->
<g id="edge6" class="edge">
<title>n1332668132&#45;&gt;n1327006586</title>
<path fill="none" stroke="black" d="M1051.02,-272.55C1102.45,-252.9 1175.66,-224.93 1227.06,-205.29"/>
<text text-anchor="middle" x="1142.5" y="-240.8" font-family="Times,serif" font-size="14.00">1</text>
</g>
<!-- n1147580192&#45;&gt;n1769190683 -->
<g id="edge8" class="edge">
<title>n1147580192&#45;&gt;n1769190683</title>
<path fill="none" stroke="black" stroke-dasharray="5,2" d="M910.7,-158.84C887.4,-153.13 861.78,-147.33 838,-143 654.31,-109.53 605.64,-119.77 421,-92 388.37,-87.09 352.97,-81.04 320.83,-75.26"/>
<polygon fill="black" stroke="black" points="321.43,-71.81 310.96,-73.47 320.18,-78.7 321.43,-71.81"/>
</g>
<!-- n1327006586&#45;&gt;n1577592551 -->
<g id="edge7" class="edge">
<title>n1327006586&#45;&gt;n1577592551</title>
<path fill="none" stroke="black" stroke-dasharray="5,2" d="M1207.83,-158.95C1185.61,-153.43 1161.43,-147.71 1139,-143 1005.01,-114.86 849.86,-89.1 745.99,-72.82"/>
<polygon fill="black" stroke="black" points="746.52,-69.36 736.1,-71.27 745.44,-76.27 746.52,-69.36"/>
</g>
<!-- n1610525991 -->
<g id="node7" class="node">
<title>n1610525991</title>
<ellipse fill="#bbffbb" stroke="black" stroke-width="3" cx="1130" cy="-401.61" rx="140.01" ry="26.74"/>
<text text-anchor="middle" x="1130" y="-405.41" font-family="monospace" font-size="14.00">example_paper:const(2)</text>
<text text-anchor="middle" x="1130" y="-390.41" font-family="monospace" font-size="14.00">OR;A</text>
</g>
<!-- n1610525991&#45;&gt;n1332668132 -->
<g id="edge12" class="edge">
<title>n1610525991&#45;&gt;n1332668132</title>
<path fill="none" stroke="black" stroke-dasharray="1,5" d="M1022.86,-384.25C1009.24,-377.77 996.96,-368.89 988,-356.74 983.18,-350.2 981.54,-342.05 981.58,-333.92"/>
<polygon fill="black" stroke="black" points="985.08,-334 982.4,-323.75 978.1,-333.43 985.08,-334"/>
<text text-anchor="middle" x="1132.5" y="-345.54" font-family="Times,serif" font-size="14.00">core:dbgNote(&#39;Multiplicative identity simplification&#39;)</text>
</g>
<!-- n1610525991&#45;&gt;n1327006586 -->
<g id="edge10" class="edge">
<title>n1610525991&#45;&gt;n1327006586</title>
<path fill="none" stroke="black" stroke-dasharray="5,2" d="M1239.44,-384.67C1253.92,-378.15 1267.14,-369.14 1277,-356.74 1308.04,-317.7 1303.81,-256.93 1296.77,-218.31"/>
<polygon fill="black" stroke="black" points="1300.11,-217.18 1294.74,-208.05 1293.25,-218.54 1300.11,-217.18"/>
</g>
<!-- n1610525991&#45;&gt;n1610525991 -->
<g id="edge11" class="edge">
<title>n1610525991&#45;&gt;n1610525991</title>
<path fill="none" stroke="black" stroke-width="6" stroke-dasharray="1,5" d="M1263.43,-409.84C1278.35,-408.29 1288.01,-405.55 1288.01,-401.61 1288.01,-397.92 1279.52,-395.28 1266.16,-393.68"/>
<polygon fill="black" stroke="black" stroke-width="6" points="1266.06,-392.35 1263.43,-393.38 1265.77,-394.96 1266.06,-392.35"/>
</g>
</g>
</svg>
