<?xml version="1.0" encoding="UTF-8" standalone="no"?>
<!DOCTYPE svg PUBLIC "-//W3C//DTD SVG 1.1//EN"
 "http://www.w3.org/Graphics/SVG/1.1/DTD/svg11.dtd">
<!-- Generated by graphviz version 2.44.0 (0)
 -->
<!-- Pages: 1 -->
<svg width="1693pt" height="602pt"
 viewBox="0.00 0.00 1693.00 601.74" xmlns="http://www.w3.org/2000/svg" xmlns:xlink="http://www.w3.org/1999/xlink">
<g id="graph0" class="graph" transform="scale(1 1) rotate(0) translate(4 597.74)">
<polygon fill="white" stroke="transparent" points="-4,4 -4,-597.74 1689,-597.74 1689,4 -4,4"/>
<g id="clust1" class="cluster">
<title>cluster1034568234</title>
<polygon fill="none" stroke="black" points="785,-8 785,-227 1213,-227 1213,-8 785,-8"/>
</g>
<g id="clust4" class="cluster">
<title>cluster1608297024</title>
<polygon fill="none" stroke="black" points="610,-262 610,-481 1320,-481 1320,-262 610,-262"/>
</g>
<g id="clust8" class="cluster">
<title>cluster944427387</title>
<polygon fill="none" stroke="black" points="8,-400.13 8,-585.74 602,-585.74 602,-400.13 8,-400.13"/>
</g>
<!-- n1034568234 -->
<g id="node1" class="node">
<title>n1034568234</title>
<polygon fill="#bbbbff" stroke="black" stroke-width="3" points="999,-219 793,-181 999,-143 1205,-181 999,-219"/>
<text text-anchor="middle" x="999" y="-184.8" font-family="monospace" font-size="14.00">example_paper:negate(_)</text>
<text text-anchor="middle" x="999" y="-169.8" font-family="monospace" font-size="14.00">OR;A</text>
</g>
<!-- n1754894440 -->
<g id="node2" class="node">
<title>n1754894440</title>
<polygon fill="#bbbbff" stroke="black" points="995,-92 797,-54 995,-16 1193,-54 995,-92"/>
<text text-anchor="middle" x="995" y="-57.8" font-family="monospace" font-size="14.00">example_paper:const(1)</text>
<text text-anchor="middle" x="995" y="-42.8" font-family="monospace" font-size="14.00">O;C</text>
</g>
<!-- n1034568234&#45;&gt;n1754894440 -->
<g id="edge1" class="edge">
<title>n1034568234&#45;&gt;n1754894440</title>
<path fill="none" stroke="black" d="M997.82,-143.17C997.31,-127.04 996.7,-108.15 996.18,-92"/>
<text text-anchor="middle" x="1000.5" y="-113.8" font-family="Times,serif" font-size="14.00">0</text>
</g>
<!-- n1608297024 -->
<g id="node3" class="node">
<title>n1608297024</title>
<polygon fill="white" stroke="black" points="1090,-473 892,-435 1090,-397 1288,-435 1090,-473"/>
<text text-anchor="middle" x="1090" y="-438.8" font-family="monospace" font-size="14.00">example_paper:sub(_,_)</text>
<text text-anchor="middle" x="1090" y="-423.8" font-family="monospace" font-size="14.00">O;C</text>
</g>
<!-- n1608297024&#45;&gt;n1034568234 -->
<g id="edge12" class="edge">
<title>n1608297024&#45;&gt;n1034568234</title>
<path fill="none" stroke="black" stroke-dasharray="5,2" d="M1198.04,-417.66C1242.69,-405.35 1290.94,-383.78 1321,-346 1351.38,-307.82 1365.58,-274.19 1334,-237 1312.05,-211.15 1242.12,-197.42 1171.8,-190.15"/>
<polygon fill="black" stroke="black" points="1171.72,-186.62 1161.43,-189.12 1171.03,-193.59 1171.72,-186.62"/>
<text text-anchor="middle" x="1518" y="-304.3" font-family="Times,serif" font-size="14.00">core:dbgNote(&#39;Expanding negation to subtraction from zero&#39;)</text>
</g>
<!-- n1932831450 -->
<g id="node4" class="node">
<title>n1932831450</title>
<polygon fill="white" stroke="black" points="1114,-346 916,-308 1114,-270 1312,-308 1114,-346"/>
<text text-anchor="middle" x="1114" y="-311.8" font-family="monospace" font-size="14.00">example_paper:const(0)</text>
<text text-anchor="middle" x="1114" y="-296.8" font-family="monospace" font-size="14.00">O;C</text>
</g>
<!-- n1608297024&#45;&gt;n1932831450 -->
<g id="edge2" class="edge">
<title>n1608297024&#45;&gt;n1932831450</title>
<path fill="none" stroke="black" d="M1096.88,-398.18C1100.09,-381.44 1103.91,-361.56 1107.12,-344.83"/>
<text text-anchor="middle" x="1106.5" y="-367.8" font-family="Times,serif" font-size="14.00">0</text>
</g>
<!-- n1608297024&#45;&gt;n1932831450 -->
<g id="edge3" class="edge">
<title>n1608297024&#45;&gt;n1932831450</title>
</g>
<!-- n440737101 -->
<g id="node5" class="node">
<title>n440737101</title>
<ellipse fill="white" stroke="black" cx="758" cy="-308" rx="140.01" ry="26.74"/>
<text text-anchor="middle" x="758" y="-311.8" font-family="monospace" font-size="14.00">example_paper:const(1)</text>
<text text-anchor="middle" x="758" y="-296.8" font-family="monospace" font-size="14.00">O;C</text>
</g>
<!-- n1608297024&#45;&gt;n440737101 -->
<g id="edge4" class="edge">
<title>n1608297024&#45;&gt;n440737101</title>
<path fill="none" stroke="black" d="M1024.8,-409.45C965.32,-387.06 878.04,-354.2 819.68,-332.22"/>
<text text-anchor="middle" x="946.5" y="-367.8" font-family="Times,serif" font-size="14.00">1</text>
</g>
<!-- n1932831450&#45;&gt;n1034568234 -->
<g id="edge8" class="edge">
<title>n1932831450&#45;&gt;n1034568234</title>
<path fill="none" stroke="black" stroke-dasharray="5,2" d="M1037.5,-284.55C1022.68,-276.65 1008.98,-266.08 1000,-252 995.49,-244.93 993.34,-236.59 992.6,-228.18"/>
<polygon fill="black" stroke="black" points="996.1,-227.87 992.34,-217.96 989.1,-228.05 996.1,-227.87"/>
<text text-anchor="middle" x="1167" y="-240.8" font-family="Times,serif" font-size="14.00">core:dbgNote(&#39;Expanding negation to subtraction from zero&#39;)</text>
</g>
<!-- n440737101&#45;&gt;n1754894440 -->
<g id="edge10" class="edge">
<title>n440737101&#45;&gt;n1754894440</title>
<path fill="none" stroke="black" stroke-dasharray="5,2" d="M754.86,-280.95C752.1,-245.8 752.55,-182.99 784,-143 809.73,-110.29 849.78,-89.61 888.11,-76.59"/>
<polygon fill="black" stroke="black" points="889.38,-79.86 897.81,-73.45 887.22,-73.2 889.38,-79.86"/>
</g>
<!-- n944427387 -->
<g id="node6" class="node">
<title>n944427387</title>
<ellipse fill="#bbffbb" stroke="black" stroke-width="3" cx="442" cy="-550.87" rx="140.01" ry="26.74"/>
<text text-anchor="middle" x="442" y="-554.67" font-family="monospace" font-size="14.00">example_paper:sub(_,_)</text>
<text text-anchor="middle" x="442" y="-539.67" font-family="monospace" font-size="14.00">O;C</text>
</g>
<!-- n944427387&#45;&gt;n1608297024 -->
<g id="edge13" class="edge">
<title>n944427387&#45;&gt;n1608297024</title>
<path fill="none" stroke="black" stroke-dasharray="5,2" d="M542.89,-532.14C661.23,-511.35 856.74,-476.99 979.19,-455.47"/>
<polygon fill="black" stroke="black" points="980.1,-458.87 989.34,-453.69 978.89,-451.97 980.1,-458.87"/>
</g>
<!-- n1636182655 -->
<g id="node7" class="node">
<title>n1636182655</title>
<ellipse fill="#bbffbb" stroke="black" cx="454" cy="-435" rx="140.01" ry="26.74"/>
<text text-anchor="middle" x="454" y="-438.8" font-family="monospace" font-size="14.00">example_paper:const(0)</text>
<text text-anchor="middle" x="454" y="-423.8" font-family="monospace" font-size="14.00">O;C</text>
</g>
<!-- n944427387&#45;&gt;n1636182655 -->
<g id="edge5" class="edge">
<title>n944427387&#45;&gt;n1636182655</title>
<path fill="none" stroke="black" d="M444.75,-523.75C446.7,-505.23 449.31,-480.49 451.26,-462"/>
<text text-anchor="middle" x="451.5" y="-494.8" font-family="Times,serif" font-size="14.00">0</text>
</g>
<!-- n944427387&#45;&gt;n1636182655 -->
<g id="edge6" class="edge">
<title>n944427387&#45;&gt;n1636182655</title>
</g>
<!-- n1820383114 -->
<g id="node8" class="node">
<title>n1820383114</title>
<ellipse fill="#bbffbb" stroke="black" cx="156" cy="-435" rx="140.01" ry="26.74"/>
<text text-anchor="middle" x="156" y="-438.8" font-family="monospace" font-size="14.00">example_paper:const(1)</text>
<text text-anchor="middle" x="156" y="-423.8" font-family="monospace" font-size="14.00">O;C</text>
</g>
<!-- n944427387&#45;&gt;n1820383114 -->
<g id="edge7" class="edge">
<title>n944427387&#45;&gt;n1820383114</title>
<path fill="none" stroke="black" d="M383.09,-526.41C333.87,-506.82 264.03,-479.01 214.84,-459.43"/>
<text text-anchor="middle" x="327.5" y="-494.8" font-family="Times,serif" font-size="14.00">1</text>
</g>
<!-- n1636182655&#45;&gt;n1932831450 -->
<g id="edge9" class="edge">
<title>n1636182655&#45;&gt;n1932831450</title>
<path fill="none" stroke="black" stroke-dasharray="5,2" d="M535.41,-413.06C558.18,-407.51 582.99,-401.74 606,-397 738.89,-369.6 773.33,-369.27 907,-346 938.64,-340.49 972.98,-334.4 1004.43,-328.78"/>
<polygon fill="black" stroke="black" points="1005.31,-332.17 1014.53,-326.97 1004.07,-325.28 1005.31,-332.17"/>
</g>
<!-- n1820383114&#45;&gt;n440737101 -->
<g id="edge11" class="edge">
<title>n1820383114&#45;&gt;n440737101</title>
<path fill="none" stroke="black" stroke-dasharray="5,2" d="M237.02,-413.08C259.02,-407.61 282.88,-401.89 305,-397 421.61,-371.21 556.02,-345.62 647.95,-328.74"/>
<polygon fill="black" stroke="black" points="648.63,-332.17 657.83,-326.93 647.36,-325.29 648.63,-332.17"/>
</g>
</g>
</svg>
